<?xml version="1.0" encoding="utf-8"?>
<!-- Generator: Adobe Illustrator 21.0.2, SVG Export Plug-In . SVG Version: 6.00 Build 0)  -->
<svg version="1.1" id="Layer_1" xmlns="http://www.w3.org/2000/svg" xmlns:xlink="http://www.w3.org/1999/xlink" x="0px" y="0px"
	 viewBox="0 0 200 200" style="enable-background:new 0 0 200 200;" xml:space="preserve">
<style type="text/css">
	.st0{clip-path:url(#SVGID_4_);}
	.st1{fill:#070707;}
	.st2{fill:#16412D;}
	.st3{fill:#1E5E3F;}
	.st4{fill:#1A4A34;}
	.st5{fill:#17422E;}
	.st6{fill:#1C563A;}
	.st7{fill:#1C583C;}
	.st8{fill:#17442F;}
	.st9{fill:#1E593D;}
	.st10{fill:#16402C;}
	.st11{fill:#1C5339;}
	.st12{fill:#133827;}
	.st13{fill:#1D553A;}
	.st14{fill:#153D2A;}
	.st15{fill:#194B33;}
	.st16{fill:#1F5E40;}
	.st17{fill:#16412C;}
	.st18{fill:#455A4F;}
	.st19{fill:#184631;}
	.st20{fill:#1B5439;}
	.st21{fill:#194F36;}
	.st22{fill:#1D583C;}
	.st23{fill:#184630;}
	.st24{fill:#1A4E37;}
	.st25{fill:#143927;}
	.st26{fill:#184530;}
	.st27{fill:#153C29;}
	.st28{fill:#194832;}
	.st29{fill:#1B5238;}
	.st30{fill:#1B5137;}
	.st31{fill:#1A5036;}
	.st32{fill:#194A33;}
	.st33{fill:#16422D;}
	.st34{fill:#1A4F36;}
	.st35{fill:#375345;}
	.st36{fill:#184832;}
	.st37{fill:#1A4A33;}
	.st38{fill:#1A4E35;}
	.st39{fill:#163929;}
	.st40{fill:#496054;}
	.st41{fill:#163C2A;}
	.st42{fill:#41584C;}
	.st43{fill:#1D573C;}
	.st44{fill:#194933;}
	.st45{fill:#445B50;}
	.st46{fill:#445D50;}
	.st47{fill:#445F51;}
	.st48{fill:#1B4D35;}
	.st49{fill:#466053;}
	.st50{fill:#485F54;}
	.st51{fill:#576C62;}
	.st52{fill:#406151;}
	.st53{fill:#143B28;}
	.st54{fill:#194731;}
	.st55{fill:#194631;}
	.st56{fill:#5A7A6B;}
	.st57{fill:#216441;}
	.st58{fill:#92A69D;}
	.st59{fill:#63786E;}
	.st60{fill:#7B9086;}
	.st61{fill:#1C5439;}
	.st62{fill:#4F6D5E;}
	.st63{fill:#1D593D;}
	.st64{fill:#1F5D3F;}
	.st65{fill:#1E5C3F;}
	.st66{fill:#8AA196;}
	.st67{fill:#7B9287;}
	.st68{fill:#194932;}
	.st69{fill:#1E5D40;}
	.st70{fill:#1F603E;}
	.st71{fill:#4F645A;}
	.st72{fill:#5D7369;}
	.st73{fill:#3B5649;}
	.st74{fill:#435A4E;}
	.st75{fill:#586E65;}
	.st76{fill:#4A6056;}
	.st77{fill:#8DA298;}
	.st78{fill:#5B7467;}
	.st79{fill:#6F877C;}
	.st80{fill:#43584D;}
	.st81{fill:#15402C;}
	.st82{fill:#123223;}
	.st83{fill:#133A27;}
	.st84{fill:#1B5138;}
	.st85{fill:#143A27;}
	.st86{fill:#5B7166;}
	.st87{fill:#4C6459;}
	.st88{fill:#1A4D35;}
	.st89{fill:#83988E;}
	.st90{fill:#748A80;}
	.st91{fill:#53695E;}
	.st92{fill:#697F75;}
	.st93{fill:#305443;}
	.st94{fill:#3F5E4E;}
	.st95{fill:#70857B;}
	.st96{fill:#17412D;}
	.st97{fill:#556C60;}
	.st98{fill:#1A4D34;}
	.st99{fill:#1C5338;}
	.st100{fill:#4E695B;}
	.st101{fill:#4F695B;}
	.st102{fill:#1A4F35;}
	.st103{fill:#1A4D36;}
	.st104{fill:#216440;}
	.st105{fill:#1F5F3E;}
	.st106{fill:#1D593C;}
	.st107{fill:#638474;}
	.st108{fill:#226642;}
	.st109{fill:#20603F;}
	.st110{fill:#20623F;}
	.st111{fill:#1D5A3D;}
	.st112{fill:#5D7E6E;}
	.st113{fill:#206140;}
	.st114{fill:#597868;}
	.st115{fill:#1E5A3D;}
	.st116{fill:#7B9989;}
	.st117{fill:#6B8277;}
	.st118{fill:#184A32;}
	.st119{fill:#174530;}
	.st120{fill:#3E5649;}
	.st121{fill:#1C573B;}
	.st122{fill:#174631;}
	.st123{fill:#153F2C;}
	.st124{fill:#184D34;}
	.st125{fill:#113122;}
	.st126{fill:#143827;}
	.st127{fill:#485D52;}
	.st128{fill:#4B6156;}
	.st129{fill:#314D3F;}
	.st130{fill:#586F65;}
	.st131{fill:#5B7469;}
	.st132{fill:#1A5237;}
	.st133{fill:#1F5F3F;}
	.st134{fill:#647C70;}
	.st135{fill:#1B5237;}
	.st136{fill:#7F9C8D;}
	.st137{fill:#226541;}
	.st138{fill:#5B7267;}
	.st139{fill:#226C45;}
	.st140{fill:#8EA499;}
	.st141{fill:#6B8C7C;}
	.st142{fill:#216A44;}
	.st143{fill:#759384;}
	.st144{fill:#8CA298;}
	.st145{fill:#749585;}
	.st146{fill:#87A093;}
	.st147{fill:#7D9389;}
	.st148{fill:#226943;}
	.st149{fill:#698778;}
	.st150{fill:#256945;}
	.st151{fill:#7D958A;}
	.st152{fill:#50685D;}
	.st153{fill:#70887D;}
	.st154{fill:#5F776C;}
	.st155{fill:#1A5137;}
	.st156{fill:#6C857A;}
	.st157{fill:#5F796C;}
	.st158{fill:#247049;}
	.st159{fill:#216943;}
	.st160{fill:#8BA297;}
	.st161{fill:#226643;}
	.st162{fill:#769184;}
	.st163{fill:#7B9488;}
	.st164{fill:#206842;}
	.st165{fill:#89A195;}
	.st166{fill:#226E46;}
	.st167{fill:#226F46;}
	.st168{fill:#25734B;}
	.st169{fill:#26754D;}
	.st170{fill:#27774E;}
	.st171{fill:#86A094;}
	.st172{fill:#216A43;}
	.st173{fill:#216B44;}
	.st174{fill:#7A9387;}
	.st175{fill:#7A9287;}
	.st176{fill:#6B8378;}
	.st177{fill:#236F48;}
	.st178{fill:#226B45;}
	.st179{fill:#88A195;}
	.st180{fill:#226D46;}
	.st181{fill:#839E91;}
	.st182{fill:#216541;}
	.st183{fill:#809D8F;}
	.st184{fill:#25724A;}
	.st185{fill:url(#SVGID_5_);}
	.st186{fill:#194931;}
	.st187{fill:#1E5A3E;}
	.st188{fill:#226542;}
	.st189{fill:#1A4C34;}
	.st190{fill:#1C5539;}
	.st191{fill:#236743;}
	.st192{fill:#226C46;}
	.st193{fill:#1F613F;}
	.st194{fill:#1E5B3C;}
	.st195{fill:#226A45;}
	.st196{fill:#1A4A32;}
	.st197{fill:#1B5338;}
	.st198{fill:#246743;}
	.st199{fill:#1B5037;}
	.st200{fill:#1E563B;}
	.st201{fill:#1D5939;}
	.st202{fill:#4AA073;}
	.st203{fill:#1D573B;}
	.st204{fill:#20613F;}
	.st205{fill:#4CA677;}
	.st206{fill:#1E593C;}
	.st207{fill:#1C5238;}
	.st208{fill:#4BA375;}
	.st209{fill:#4BA476;}
	.st210{fill:#216944;}
	.st211{fill:#4AA173;}
	.st212{fill:#4AA174;}
	.st213{fill:#20603E;}
	.st214{fill:#1F5B3C;}
	.st215{fill:#39805B;}
	.st216{fill:#487F63;}
	.st217{fill:#1C5137;}
	.st218{fill:#6E9F87;}
	.st219{fill:#194D34;}
	.st220{fill:#3D8961;}
	.st221{fill:#307250;}
	.st222{fill:#377D59;}
	.st223{fill:#3E8B63;}
	.st224{fill:#1F5D3E;}
	.st225{fill:#44986C;}
	.st226{fill:#1B563A;}
	.st227{fill:#1B5036;}
	.st228{fill:#429268;}
	.st229{fill:#4BA275;}
	.st230{fill:#307350;}
	.st231{fill:#18442F;}
	.st232{fill:#3A855E;}
	.st233{fill:#1F5E3D;}
	.st234{fill:#1E5C3B;}
	.st235{fill:#1F5C3B;}
	.st236{fill:#419469;}
	.st237{fill:#459A6F;}
	.st238{fill:#1D563A;}
	.st239{fill:#469A6E;}
	.st240{fill:#419268;}
	.st241{fill:#45986D;}
	.st242{fill:#3F8E65;}
	.st243{fill:#377F5A;}
	.st244{fill:#3D8A62;}
	.st245{fill:#45976C;}
	.st246{fill:#367E59;}
	.st247{fill:#194831;}
	.st248{fill:#409167;}
	.st249{fill:#36805A;}
	.st250{fill:#3A875F;}
	.st251{fill:#1A4B32;}
	.st252{fill:#44956B;}
	.st253{fill:#3B8A60;}
	.st254{fill:#37805A;}
	.st255{fill:#3F8C64;}
	.st256{fill:#327452;}
	.st257{fill:#47996E;}
	.st258{fill:#2C6B4B;}
	.st259{fill:#4A9F73;}
	.st260{fill:url(#SVGID_6_);}
	.st261{fill:#17442D;}
	.st262{fill:#32825A;}
	.st263{fill:#16422B;}
	.st264{fill:#2F7F56;}
	.st265{fill:#268E58;}
	.st266{fill:#286B47;}
	.st267{fill:#1F5F3D;}
	.st268{fill:#1B4B33;}
	.st269{fill:#18462F;}
	.st270{fill:#236642;}
	.st271{fill:#184A31;}
	.st272{fill:#184931;}
	.st273{fill:#1F5D3D;}
	.st274{fill:#194A32;}
	.st275{fill:#1F5A3D;}
	.st276{fill:#27744A;}
	.st277{fill:#257148;}
	.st278{fill:#2D7B51;}
	.st279{fill:#2F7D55;}
	.st280{fill:#184830;}
	.st281{fill:#2B7A51;}
	.st282{fill:#2B794F;}
	.st283{fill:#256A43;}
	.st284{fill:#2B774F;}
	.st285{fill:#1F5A3E;}
	.st286{fill:#2E7D55;}
	.st287{fill:#266F48;}
	.st288{fill:#194730;}
	.st289{fill:#1D543A;}
	.st290{fill:#18472F;}
	.st291{fill:#246E44;}
	.st292{fill:#278A56;}
	.st293{fill:#27714A;}
	.st294{fill:#29764B;}
	.st295{fill:#28724C;}
	.st296{fill:#226240;}
	.st297{fill:#205C3F;}
	.st298{fill:#1F573C;}
	.st299{fill:#205B3F;}
	.st300{fill:#28734C;}
	.st301{fill:#225F3F;}
	.st302{fill:#266E47;}
	.st303{fill:#216140;}
	.st304{fill:#246E46;}
	.st305{fill:#29744D;}
	.st306{fill:#205C40;}
	.st307{fill:#226741;}
	.st308{fill:#216341;}
	.st309{fill:#246844;}
	.st310{fill:#236341;}
	.st311{fill:#2E7B54;}
	.st312{fill:#2B7750;}
	.st313{fill:#236041;}
	.st314{fill:#236442;}
	.st315{fill:#1B4F36;}
	.st316{fill:#1F5B3D;}
	.st317{fill:#1B4F35;}
	.st318{fill:#226041;}
	.st319{fill:#1F5B3E;}
	.st320{fill:#1C5438;}
	.st321{fill:#267047;}
	.st322{fill:#246544;}
	.st323{fill:#1C5237;}
	.st324{fill:#4DAD7B;}
	.st325{fill:#266945;}
	.st326{fill:#1E583C;}
	.st327{fill:#1A5136;}
	.st328{fill:#266B46;}
	.st329{fill:#21613F;}
	.st330{fill:#1E583B;}
	.st331{fill:#236242;}
	.st332{fill:#194C33;}
	.st333{fill:#276D48;}
	.st334{fill:#205F3F;}
	.st335{fill:#24784D;}
	.st336{fill:#359865;}
	.st337{fill:#267E50;}
	.st338{fill:#2D8D5B;}
	.st339{fill:#25593F;}
	.st340{fill:#248050;}
	.st341{fill:#2A764D;}
	.st342{fill:#266C46;}
	.st343{fill:#256844;}
	.st344{fill:#216241;}
	.st345{fill:#268855;}
	.st346{fill:#307F57;}
	.st347{fill:#288C57;}
	.st348{fill:#268856;}
	.st349{fill:#206D46;}
	.st350{fill:#278955;}
	.st351{fill:#17472F;}
	.st352{fill:#278C57;}
	.st353{fill:#1F5C3C;}
	.st354{fill:#1D563B;}
	.st355{fill:#17452F;}
	.st356{fill:#1F5A3C;}
	.st357{fill:#17462F;}
	.st358{fill:#278956;}
	.st359{fill:#257F51;}
	.st360{fill:#256E48;}
	.st361{fill:#258253;}
	.st362{fill:#1F583D;}
	.st363{fill:#268654;}
	.st364{fill:#217148;}
	.st365{fill:#1D613E;}
	.st366{fill:#247149;}
	.st367{fill:#246F44;}
	.st368{fill:#277448;}
	.st369{fill:#2E7D53;}
	.st370{fill:#276B45;}
	.st371{fill:#266F49;}
	.st372{fill:#29764E;}
	.st373{fill:#277249;}
	.st374{fill:#277048;}
	.st375{fill:#17462E;}
	.st376{fill:#266946;}
	.st377{fill:#226340;}
	.st378{fill:#266B45;}
	.st379{fill:#226440;}
	.st380{fill:#17432E;}
	.st381{fill:#184831;}
	.st382{fill:#1D5439;}
	.st383{fill:#1E553B;}
	.st384{fill:#21603E;}
	.st385{fill:#205B3E;}
	.st386{fill:#2C7A52;}
	.st387{fill:#216340;}
	.st388{fill:#257049;}
	.st389{fill:#258254;}
	.st390{fill:#1B4C34;}
	.st391{fill:#1F5C3D;}
	.st392{fill:#256D46;}
	.st393{fill:#236541;}
	.st394{fill:url(#SVGID_7_);}
	.st395{fill:url(#SVGID_8_);}
	.st396{fill:url(#SVGID_9_);}
	.st397{fill:url(#SVGID_10_);}
	.st398{fill:url(#SVGID_11_);}
	.st399{fill:url(#SVGID_12_);}
	.st400{fill:#1F623F;}
	.st401{fill:#1A5638;}
	.st402{fill:#1D5D3B;}
	.st403{fill:#1C5938;}
	.st404{fill:#1C5C3A;}
	.st405{fill:#12472D;}
	.st406{fill:#1A5637;}
	.st407{fill:#1D5E3C;}
	.st408{fill:#1B5B3A;}
	.st409{fill:#23593C;}
	.st410{fill:#185333;}
	.st411{fill:#3C7959;}
	.st412{fill:#498968;}
	.st413{fill:#346F50;}
	.st414{fill:#418161;}
	.st415{fill:#407F5F;}
	.st416{fill:#195434;}
	.st417{fill:#195334;}
	.st418{fill:#175030;}
	.st419{fill:#3B7757;}
	.st420{fill:#1E5F3D;}
	.st421{fill:#185134;}
	.st422{fill:#3F7E5D;}
	.st423{fill:#3C785B;}
	.st424{fill:#154B30;}
	.st425{fill:#367152;}
	.st426{fill:#357050;}
	.st427{fill:#2E694B;}
	.st428{fill:#3D7D5C;}
	.st429{fill:#1E5E3D;}
	.st430{fill:#3F7C5C;}
	.st431{fill:#407C5C;}
	.st432{fill:#438363;}
	.st433{fill:#327050;}
	.st434{fill:#2D6849;}
	.st435{fill:#417F60;}
	.st436{fill:#427F5E;}
	.st437{fill:#326C4D;}
	.st438{fill:#2A6B49;}
	.st439{fill:#347553;}
	.st440{fill:#2B6A49;}
	.st441{fill:#3F7D5D;}
	.st442{fill:#3A7857;}
	.st443{fill:#246241;}
	.st444{fill:#377655;}
	.st445{fill:#296445;}
	.st446{fill:#3A7558;}
	.st447{fill:#336E4F;}
	.st448{fill:#387857;}
	.st449{fill:#2E684B;}
	.st450{fill:#326A4E;}
	.st451{fill:#458564;}
	.st452{fill:#2D6647;}
	.st453{fill:#1E5B3A;}
	.st454{fill:#347453;}
	.st455{fill:#236443;}
	.st456{fill:#41805F;}
	.st457{fill:#418061;}
	.st458{fill:#316C4E;}
	.st459{fill:#3E7A5A;}
	.st460{fill:#367051;}
	.st461{fill:#377253;}
	.st462{fill:#3A7A59;}
	.st463{fill:#296646;}
	.st464{fill:#3B7759;}
	.st465{fill:#387556;}
	.st466{fill:#30694A;}
	.st467{fill:#397656;}
	.st468{fill:#3E7F5D;}
	.st469{fill:#3B7958;}
	.st470{fill:#3C7A59;}
	.st471{fill:#246744;}
	.st472{fill:#2B6E4B;}
	.st473{fill:#256545;}
	.st474{fill:#296B49;}
	.st475{fill:#306849;}
	.st476{fill:#357051;}
	.st477{fill:#185132;}
	.st478{fill:#2E6749;}
	.st479{fill:#165134;}
	.st480{fill:#2C6748;}
	.st481{fill:#377254;}
	.st482{fill:#1D5D3C;}
	.st483{fill:#397557;}
	.st484{fill:#357453;}
	.st485{fill:#286746;}
	.st486{fill:#397856;}
	.st487{fill:#3E7E5C;}
	.st488{fill:#3B7B5B;}
	.st489{fill:#408060;}
	.st490{fill:#336F50;}
	.st491{fill:#367756;}
	.st492{fill:#1A5434;}
	.st493{fill:#387757;}
	.st494{fill:#175032;}
	.st495{fill:#1B5737;}
	.st496{fill:#377453;}
	.st497{fill:#2A6546;}
	.st498{fill:#275D3F;}
	.st499{fill:#1E5539;}
	.st500{fill:#1C5335;}
	.st501{fill:#2A6C49;}
	.st502{fill:#1E603D;}
	.st503{fill:#154C30;}
	.st504{fill:#174B31;}
	.st505{fill:#417E5E;}
	.st506{fill:#3A785A;}
	.st507{fill:#1B5837;}
	.st508{fill:#387354;}
	.st509{fill:#327351;}
	.st510{fill:#387555;}
	.st511{fill:#326E4E;}
	.st512{fill:#1B5838;}
	.st513{fill:#2D6747;}
	.st514{fill:#2C6344;}
	.st515{fill:#3F7D5C;}
	.st516{fill:#2C6C4A;}
	.st517{fill:#255C3F;}
	.st518{fill:#478867;}
	.st519{fill:#307050;}
	.st520{fill:#407E61;}
	.st521{fill:#2D694D;}
	.st522{fill:#285F41;}
	.st523{fill:#43805F;}
	.st524{fill:#3D7B5A;}
	.st525{fill:#3A7555;}
	.st526{fill:#256845;}
	.st527{fill:#448463;}
	.st528{fill:#337452;}
	.st529{fill:#387756;}
	.st530{fill:#1A5535;}
	.st531{fill:#33704F;}
	.st532{fill:#296645;}
	.st533{fill:#468665;}
	.st534{fill:#3F7F5E;}
	.st535{fill:#2E6F4D;}
	.st536{fill:#317251;}
	.st537{fill:#377354;}
	.st538{fill:#1F5638;}
	.st539{fill:#1A5539;}
	.st540{fill:#296042;}
	.st541{fill:#164B31;}
	.st542{fill:#14482F;}
	.st543{fill:#336D4E;}
	.st544{fill:#2E6748;}
	.st545{fill:#21583C;}
	.st546{fill:#336C4D;}
	.st547{fill:#2A6243;}
	.st548{fill:#336C4C;}
	.st549{fill:#1E5637;}
	.st550{fill:#1D5538;}
	.st551{fill:#2F6C4C;}
	.st552{fill:#1B5637;}
	.st553{fill:#347052;}
	.st554{fill:#1C5939;}
	.st555{fill:#1A5537;}
	.st556{fill:#185334;}
	.st557{fill:#1F5839;}
	.st558{fill:#13472B;}
	.st559{fill:#1F543A;}
	.st560{fill:#185034;}
	.st561{fill:#367354;}
	.st562{fill:#397857;}
	.st563{fill:#357154;}
	.st564{fill:#3A7658;}
	.st565{fill:#276846;}
	.st566{fill:#266846;}
	.st567{fill:#13482C;}
	.st568{fill:#154D2F;}
	.st569{fill:#22583A;}
	.st570{fill:#317250;}
	.st571{fill:#3B7859;}
	.st572{fill:#438265;}
	.st573{fill:#397659;}
	.st574{fill:#3E7C60;}
	.st575{fill:#1C5838;}
	.st576{fill:#265F3F;}
	.st577{fill:#2B6C4A;}
	.st578{fill:#246543;}
	.st579{fill:#256644;}
	.st580{fill:#2E6A4D;}
	.st581{fill:#13482D;}
	.st582{fill:#2D6548;}
	.st583{fill:#185232;}
	.st584{fill:#195034;}
	.st585{fill:#21573B;}
	.st586{fill:#195234;}
	.st587{fill:#164F30;}
	.st588{fill:#185233;}
	.st589{fill:#1A5538;}
	.st590{fill:#215A3C;}
	.st591{fill:#387455;}
	.st592{fill:#266645;}
	.st593{fill:#3D7B5B;}
	.st594{fill:#3B785A;}
	.st595{fill:#418062;}
	.st596{fill:#418162;}
	.st597{fill:#3D7A5B;}
	.st598{fill:#337352;}
	.st599{fill:#2D694C;}
	.st600{fill:#3D7A5C;}
	.st601{fill:#225E40;}
	.st602{fill:#1D5C3B;}
	.st603{fill:#3D7C5B;}
	.st604{fill:#266044;}
	.st605{fill:#2B6C4B;}
	.st606{fill:url(#SVGID_13_);}
	.st607{fill:url(#SVGID_14_);}
	.st608{fill:url(#SVGID_15_);}
	.st609{fill:url(#SVGID_16_);}
	.st610{fill:url(#SVGID_17_);}
	.st611{fill:url(#SVGID_18_);}
	.st612{fill:url(#SVGID_19_);}
	.st613{fill:url(#SVGID_20_);}
	.st614{fill:url(#SVGID_21_);}
	.st615{fill:url(#SVGID_22_);}
	.st616{fill:url(#SVGID_23_);}
	.st617{fill:url(#SVGID_24_);}
	.st618{fill:url(#SVGID_25_);}
	.st619{fill:url(#SVGID_28_);}
	.st620{fill:url(#SVGID_29_);}
	.st621{fill:url(#SVGID_30_);}
	.st622{fill:url(#SVGID_31_);}
	.st623{fill:url(#SVGID_32_);}
	.st624{opacity:0.5;}
	.st625{fill:#C7E5E5;}
	.st626{opacity:0.6;}
	.st627{opacity:0.77;}
	.st628{opacity:0.75;fill:#C7E5E5;}
	.st629{fill:#151515;}
	.st630{fill:#687477;}
	.st631{fill:#FFFFFF;}
</style>
<g>
	<g>
		<g>
			<path class="st631" d="M98.9,196.4c-2.1,0-4.1-0.3-5.9-0.8c-24.2-7-45.2-19-62.4-35.7c-12.8-12.4-19-26.3-18.4-41.4
				c0.4-10.8,3.9-21,10.2-30.4c6-8.8,8.6-17.5,8.2-26.7C30,49.3,25.4,40,16.6,33.2l0,0.1l-1.3-1c-1.1-0.8-2.3-1.8-2.1-3.6l0.2-1.8
				l1.1-0.4c1.3-1.4,2.5-2.7,3.8-4c4.9-5.2,9.5-10.2,14.3-15.1c1.7-1.7,5.4-2.2,7.5-0.9c18.7,11.1,37.2,10.6,56.4-1.5
				c0.4-0.3,0.9-0.4,1.1-0.5l0.1,0l1.6-0.6l1.4,1c12.8,9.3,27.9,11.4,47.5,6.7c2.5-0.6,5-2.2,7.4-3.8l0.7-0.4
				c1.4-0.9,5.2-3.3,9.2,0.7c4.4,4.3,8.7,8.5,13.4,12.9c1.8,1.7,3.6,3.4,5.4,5.2l2.6,2.5l-4.1,3.2c-1.1,0.9-2.2,1.8-3.3,2.6
				C164,46.6,163.5,71.7,173.5,86c7.1,10.2,10.9,20.5,11.5,31.5c0.8,13-3.6,25.3-12.9,36.4c-11.9,14.2-27.9,25.7-48.9,35.1
				c-6.3,2.8-12.4,5.1-18.2,6.7C103,196.2,100.9,196.4,98.9,196.4z M20.8,28.7c10,7.9,15.4,18.8,16,32.6c0.5,10.6-2.5,20.5-9.3,30.5
				c-5.7,8.4-8.8,17.5-9.2,27.1c-0.6,13.5,4.8,25.5,16.5,36.7c16.5,16,36.7,27.5,59.8,34.2c2.5,0.7,5.9,0.7,8.6,0
				c5.5-1.5,11.3-3.6,17.3-6.3c20.1-9,35.4-20,46.7-33.4c8.4-10,12.2-20.5,11.5-32c-0.6-9.8-4-19.1-10.4-28.3
				c-5.9-8.5-8.7-19.8-7.6-31.1c1.1-12,6.4-22.3,14.8-29c0.6-0.5,1.2-1,1.8-1.4c-0.9-0.9-1.9-1.8-2.8-2.7c-4.6-4.4-9-8.7-13.4-13
				c-0.2-0.2-0.4-0.4-0.5-0.4c-0.1,0.1-0.4,0.2-1,0.6l-0.6,0.4c-2.7,1.8-5.9,3.8-9.3,4.6c-20.8,5.1-37.1,3-51.1-6.5
				c-20.6,12.4-41.2,12.7-61.4,0.9c-0.1,0-0.3,0-0.4,0c-4.7,4.8-9.2,9.6-13.9,14.7C22.1,27.3,21.5,28,20.8,28.7z M36.5,11.9
				L36.5,11.9L36.5,11.9z M67.4,142.7l0.4-5.2c0.2-2.9,0.4-5.8,0.6-8.6c0.4-6.9,0.8-13.4,1.5-20c0.3-3.8-0.3-5.7-2.6-7.7
				c-4.2-3.7-8.2-7.8-12-11.7c-1.5-1.6-3.1-3.2-4.7-4.8c-0.5-0.5-1-1-1.6-1.7c-0.3-0.3-0.6-0.7-1-1.1l-4-4.3l11-1.6
				c3.7-0.5,7.3-1.1,10.9-1.6c1.4-0.2,2.8-0.4,4.2-0.6c3.2-0.4,6.5-0.9,9.7-1.5c0.3-0.1,0.8-0.5,0.9-0.8c3.5-6.7,6.9-13.7,10.2-20.4
				c1.1-2.3,2.2-4.5,3.4-6.8c0.3-0.6,0.6-1.2,1-2l3.4-6.6l4.2,8.3c1,1.9,1.8,3.6,2.7,5.4c0.9,1.8,1.8,3.6,2.7,5.4
				c2.7,5.3,5.4,10.9,8.1,16.3c0.5,1.1,0.8,1.2,1.7,1.3c7.5,0.9,15,2,22.3,3.1l5.1,0.7c0.8,0.1,1.4,0.4,1.9,0.6
				c0.1,0,0.2,0.1,0.3,0.1l4.6,1.6l-3.4,3.5c-1.8,1.9-3.6,3.7-5.4,5.6c-4.4,4.6-9,9.3-13.6,13.8c-2.1,2-2.6,3.5-2.4,6
				c0.7,7,1.1,13.9,1.5,21.2c0.2,2.9,0.3,5.8,0.5,8.7l0.3,5.1l-4.7-2.1c-0.4-0.2-0.7-0.3-1.1-0.5c-0.7-0.3-1.4-0.6-2.2-1l-4.6-2.3
				c-5.9-2.9-11.9-6-17.8-9c-0.7-0.4-1-0.4-1.7,0c-5.7,3-11.6,5.9-17.3,8.7c-1.6,0.8-3.3,1.6-4.9,2.5c-0.7,0.3-1.3,0.6-2.1,1
				c-0.4,0.2-0.8,0.4-1.4,0.6L67.4,142.7z M98.6,121.3c1.2,0,2.4,0.3,3.7,1c5.9,3.1,11.9,6.1,17.8,9l2.9,1.4
				c-0.1-1.2-0.1-2.4-0.2-3.5c-0.4-7.2-0.8-14.1-1.5-21c-0.5-4.5,0.8-7.8,4.2-11.1c4.6-4.4,9.1-9.1,13.5-13.6c0.5-0.5,1-1,1.5-1.5
				l-0.9-0.1c-7.3-1-14.8-2.1-22.2-3.1c-3.1-0.4-5.2-1.9-6.5-4.8c-2.6-5.4-5.4-10.9-8.1-16.3c-0.9-1.8-1.8-3.6-2.7-5.4
				c-0.5-0.9-0.9-1.8-1.4-2.8c-0.7,1.5-1.5,3-2.2,4.4c-3.3,6.7-6.8,13.7-10.2,20.4c-1,1.9-3.2,3.6-5.3,4c-3.4,0.6-6.8,1.1-10.1,1.5
				c-1.4,0.2-2.8,0.4-4.2,0.6c-3.3,0.5-6.6,1-10.1,1.5c1,1,2,2.1,3,3.1c3.8,3.9,7.6,7.8,11.7,11.4c4.8,4.2,5,8.9,4.7,13
				c-0.6,6.5-1,13-1.4,19.8c-0.1,1.1-0.1,2.2-0.2,3.4c1.1-0.6,2.3-1.1,3.4-1.7c5.7-2.8,11.5-5.7,17.2-8.7
				C96.2,121.6,97.4,121.3,98.6,121.3z"/>
			<path class="st631" d="M98.9,198.4c-2.3,0-4.5-0.3-6.5-0.9c-24.5-7.1-45.8-19.2-63.3-36.1c-13.2-12.8-19.6-27.2-19-42.9
				c0.5-11.2,4-21.7,10.6-31.4c5.7-8.4,8.3-16.7,7.8-25.5c-0.5-11-4.5-19.4-12-25.8v0L14,33.8c-1-0.7-3.2-2.3-2.9-5.4l0.3-3l1.8-0.7
				l3.5-3.7c4.9-5.2,9.5-10.2,14.3-15.1c2.3-2.4,7.1-2.9,10-1.2c18,10.7,35.8,10.2,54.3-1.4c0.6-0.4,1.2-0.6,1.5-0.7l2.6-1l2.2,1.6
				c12.3,9,26.8,11,45.9,6.3c2.1-0.5,4.5-2.1,6.8-3.5l0.7-0.4c4.3-2.8,8.3-2.5,11.7,0.9c4.1,4.1,8.2,8,12.5,12.1l10.5,10l-9.2,7.3
				c-14.6,11.6-15,35.4-5.5,49c7.3,10.5,11.2,21.2,11.9,32.5c0.8,13.6-3.7,26.3-13.4,37.8c-12.2,14.4-28.4,26.1-49.6,35.6
				c-6.4,2.9-12.6,5.2-18.5,6.8C103.4,198.2,101.1,198.4,98.9,198.4z M16.9,31l0.9,0.6c9.4,7.2,14.2,16.9,14.9,29.8
				c0.5,9.6-2.3,18.8-8.5,27.9c-6.1,9-9.5,18.9-9.9,29.3c-0.6,14.5,5.4,28,17.7,39.9c17,16.4,37.8,28.3,61.6,35.2
				c3.2,0.9,7.4,0.9,10.9,0c5.7-1.5,11.7-3.8,17.9-6.5c20.7-9.3,36.4-20.6,48.2-34.6c9-10.7,13.2-22.5,12.5-35
				c-0.6-10.6-4.3-20.6-11.2-30.5c-10.4-15-10-41.5,6.3-54.4l5.6-4.4l-7.2-6.9c-4.3-4.1-8.4-8.1-12.5-12.2c-2.7-2.7-4.9-1.6-6.8-0.4
				l-0.7,0.4c-2.6,1.7-5.3,3.4-8,4.1c-20.3,4.9-35.9,2.7-49.2-7L98.9,6l-0.6,0.2c-0.4,0.1-0.6,0.2-0.8,0.3
				c-19.9,12.5-39,13-58.5,1.5c-1.4-0.8-4.1-0.5-5.1,0.6c-4.8,4.9-9.4,9.9-14.3,15.1l-4.5,4.5l-0.1,0.6c-0.1,0.5,0.1,0.9,1.3,1.7
				L16.9,31z M98.9,192.2c-1.7,0-3.3-0.2-4.7-0.6c-23.5-6.8-43.9-18.5-60.7-34.6c-12.1-11.6-17.6-24.1-17.1-38.2
				c0.4-10,3.6-19.5,9.5-28.2c6.5-9.5,9.4-19.1,8.9-29.2c-0.6-13.1-5.8-23.6-15.3-31.1l-1.7-1.3l3.4-3.7c4.8-5.1,9.3-10,14-14.8
				l0.4-0.4l1.6-0.2l0.9,0.3c19.5,11.4,39.4,11.1,59.4-0.9l1.1-0.7l1.1,0.7c13.5,9.2,29.2,11.2,49.5,6.3c3.1-0.8,6.1-2.6,8.7-4.3
				l0.7-0.5c0.6-0.4,1-0.6,1.4-0.8l1-0.3l0.8,0.6c0.1,0.1,0.4,0.3,0.8,0.6c4.4,4.4,8.8,8.5,13.4,13l4.5,4.3l-3.6,2.9
				c-8,6.3-13,16.1-14,27.6c-1,10.8,1.6,21.7,7.3,29.8c6.6,9.6,10.2,19.2,10.8,29.4c0.7,12.1-3.2,23-12,33.4
				c-11.5,13.7-27.1,24.8-47.4,34c-6.1,2.7-12,4.9-17.6,6.4C102.3,192,100.6,192.2,98.9,192.2z M23.7,28.5
				c9.4,8.1,14.5,19.1,15.1,32.7c0.5,11-2.6,21.4-9.6,31.7c-5.5,8.1-8.5,16.8-8.8,26.1c-0.5,12.9,4.7,24.4,15.8,35.2
				c16.3,15.7,36.2,27.1,59,33.7c2.2,0.6,5.1,0.6,7.5,0c5.4-1.5,11.1-3.6,17-6.2c19.8-8.9,34.9-19.7,46-32.9
				c8.1-9.6,11.7-19.6,11-30.6c-0.6-9.4-3.9-18.4-10.1-27.3c-6.2-8.9-9.1-20.7-8-32.4c1.2-12.6,6.7-23.4,15.5-30.4l0,0l-1.2-1.1
				c-4.4-4.2-8.6-8.3-12.8-12.4l-0.3,0.2c-2.9,1.9-6.2,4-10,4.9c-20.9,5.1-37.3,3.1-51.6-6.1c-20.5,12-41.1,12.3-61.2,0.9
				c-4.3,4.5-8.6,9-13,13.8L23.7,28.5z M65.2,145.9l1.1-17.1c0.4-6.9,0.9-13.4,1.5-20c0.3-3.5-0.3-4.7-1.9-6.1
				c-4.4-3.9-8.5-8.1-12.1-11.8l-1.1-1.1c-1.2-1.2-2.4-2.4-3.6-3.6c-0.5-0.5-1-1.1-1.6-1.7l-7.6-8.2l29.9-4.3
				c3.2-0.4,6.3-0.8,9.3-1.4c3.4-6.5,6.7-13.2,9.9-19.7l9.8-19.3l12.2,24.2c2.4,4.8,4.9,9.8,7.3,14.8c7.4,1.1,14.7,2.2,21.8,3.2
				l5.8,0.8c1,0.1,1.8,0.5,2.3,0.7l7.7,2.8l-11,11.3c-4.4,4.6-9,9.3-13.7,13.8c-1.7,1.7-1.9,2.6-1.8,4.4c0.7,6.9,1.1,13.7,1.5,20.8
				l0,0.5c0.2,3.2,0.3,5.9,0.5,8.7l0.5,8.4l-8.7-3.8c-0.9-0.4-1.6-0.7-2.3-1l-4.6-2.3c-5.8-2.9-11.9-5.9-17.8-9
				c-5.9,3-11.7,5.9-17.3,8.7l-4.9,2.5c-0.7,0.3-1.4,0.6-2.2,1L65.2,145.9z M47.9,79l2.3,2.5c0.7,0.8,1.2,1.3,1.7,1.8
				c1.2,1.2,2.4,2.4,3.6,3.7l1.1,1.1c3.6,3.7,7.7,7.9,11.9,11.6c2.8,2.5,3.7,5,3.3,9.4c-0.6,6.6-1,13.1-1.5,19.9l-0.7,10.4l2.9-1.3
				c0.9-0.4,1.5-0.7,2.2-1l4.9-2.5c5.7-2.8,11.5-5.8,17.3-8.7c1.3-0.7,2.2-0.7,3.6,0c5.9,3.1,12,6.1,17.8,9l4.6,2.3
				c0.6,0.3,1.2,0.6,1.8,0.8l3,1.3l-0.1-1.8c-0.2-2.8-0.3-5.6-0.5-8.3l-0.1-1c-0.4-7.1-0.8-13.8-1.5-20.6c-0.3-3.2,0.5-5.3,3-7.7
				c4.6-4.5,9.2-9.2,13.6-13.7l6.6-6.8l-1.6-0.6c-0.8-0.3-1.3-0.5-1.8-0.6l-5.8-0.8c-7.1-1-14.4-2.1-21.6-3
				c-1.7-0.2-2.5-0.8-3.3-2.4c-2.4-4.9-4.9-9.9-7.3-14.7l-8.6-17.2l-6,11.9c-3.4,7-6.8,13.8-10.2,20.4c-0.4,0.8-1.4,1.6-2.1,1.8
				c-3.4,0.6-6.6,1.1-9.8,1.5L47.9,79z M125.2,136l-6-3c-5.9-2.9-11.9-5.9-17.8-9c-1.9-1-3.6-1-5.6,0c-5.5,2.9-11.1,5.7-16.6,8.4
				l-7.1,3.6l0.5-7.6c0.4-6.6,0.8-12.8,1.4-19.1c0.3-3.7,0.1-7.7-4-11.3c-4.1-3.6-8-7.6-11.7-11.4l-5.9-6L70.6,78
				c3.3-0.4,6.6-0.9,10-1.5c1.5-0.3,3.2-1.6,3.9-3c3.3-6.5,6.7-13.2,9.9-19.7l4.3-8.8l5.9,11.7c2.7,5.3,5.4,10.8,8.1,16.3
				c1.1,2.3,2.6,3.4,5,3.7c7.4,0.9,15,2,22.3,3.1l4.8,0.7l-4.2,4.3c-4.5,4.6-9,9.3-13.5,13.7c-3,2.9-4,5.6-3.6,9.5
				c0.7,6.9,1.1,13.8,1.5,21L125.2,136z M98.6,119.3c1.6,0,3.1,0.4,4.6,1.2c5.8,3,11.8,6,17.5,8.9l0-0.1c-0.4-7.3-0.8-14.1-1.5-20.9
				c-0.5-5.1,1-9,4.8-12.8c4.1-4,8.2-8.2,12.2-12.3c-6.3-0.9-12.8-1.8-19.2-2.6c-3.8-0.5-6.4-2.4-8.1-5.9
				c-2.6-5.4-5.4-10.9-8.1-16.2L98.6,54l-0.8,1.6c-3.2,6.5-6.5,13.2-9.9,19.7c-1.3,2.5-4,4.6-6.7,5.1c-3.4,0.6-6.8,1.1-10.2,1.5
				l-10.3,1.5l0.3,0.3c3.8,3.9,7.6,7.8,11.6,11.3c5.5,4.8,5.7,10.4,5.3,14.7c-0.6,6.2-1,12.5-1.4,19l0,0.6l0.9-0.4
				c5.5-2.7,11.1-5.5,16.6-8.4C95.6,119.7,97.1,119.3,98.6,119.3z"/>
		</g>
	</g>
	<path class="st631" d="M70.8,137.7c0.7-9.9,1.2-19.2,2-28.5c0.4-4.2-0.2-7.3-3.6-10.4C63.4,93.7,58.1,88,52.6,82.5
		c-0.7-0.7-1.4-1.5-2.5-2.6c5.7-0.8,10.8-1.6,16-2.3c4.7-0.7,9.4-1.2,14.1-2.1c1.2-0.2,2.6-1.3,3.1-2.4c4.6-9,9.1-18.1,13.6-27.2
		c0.5-0.9,0.9-1.8,1.6-3.2c1.5,3,2.8,5.6,4.2,8.3c3.6,7.2,7.3,14.4,10.8,21.7c0.9,1.9,2,2.8,4.1,3c9.1,1.2,18.2,2.5,27.3,3.8
		c0.6,0.1,1.1,0.4,1.6,0.5c-6.4,6.5-12.5,13.1-19,19.3c-2.6,2.5-3.7,4.8-3.3,8.6c1,9.8,1.4,19.6,2,29.8c-1.2-0.5-2.1-0.9-3.1-1.4
		c-7.5-3.8-15-7.5-22.4-11.3c-1.7-0.9-2.9-0.8-4.6,0c-7.3,3.8-14.8,7.5-22.2,11.2C73.3,136.7,72.3,137,70.8,137.7z"/>
</g>
</svg>
