<?xml version="1.0" encoding="utf-8"?>
<!-- Generator: Adobe Illustrator 21.0.2, SVG Export Plug-In . SVG Version: 6.00 Build 0)  -->
<svg version="1.1" id="Layer_1" xmlns="http://www.w3.org/2000/svg" xmlns:xlink="http://www.w3.org/1999/xlink" x="0px" y="0px"
	 viewBox="0 0 200 200" style="enable-background:new 0 0 200 200;" xml:space="preserve">
<style type="text/css">
	.st0{clip-path:url(#SVGID_4_);}
	.st630{fill:#fff;}
	
</style>
<g>
	<g>
		<path class="st630" d="M129.2,167.4c-4.2,19.1-14.9,29-30.1,28.3c-14.1-0.7-26.9-11.4-27.9-28.1c-1.3-0.1-2.6-0.2-3.9-0.2
			c-11.6,0-23.1,0-34.7,0c-1.5,0-3.1-0.1-4.5-0.6c-4.2-1.6-5.3-6.4-1.8-9.1c9.4-7.3,12.6-17.9,15.4-28.6c4-14.9,3.4-30.2,4.6-45.4
			c1.5-18.8,10.8-33,27.1-42.5c3.2-1.9,5.1-3.5,4.6-7.5c-0.4-3.2-0.1-6.6,0.2-9.9c0.9-11.5,10-19.4,21.9-19.4c11.9,0,21,8,21.9,19.4
			c0.3,3.9,0.3,7.9,0.2,11.8c0,2.1,0.5,3.5,2.6,4.5c16.2,8.3,25.5,21.8,28.7,39.4c1.2,6.6,0.9,13.4,1.1,20.1
			c0.6,14.2,2.5,28.1,7.8,41.4c2.5,6.3,5.6,12.1,11.3,16.4c3.8,2.9,2.7,8-1.9,9.5c-1.4,0.5-3,0.5-4.5,0.5c-11.3,0-22.6,0-33.9,0
			C131.8,167.4,130.5,167.4,129.2,167.4z M43.1,155.8c38.2,0,75.8,0,113.6,0c-2-4.5-4.1-8.7-5.7-13c-6.1-16.8-7.8-34.3-7.9-52.1
			c0-7.7-1.4-15.1-4.8-22.1C126.4,44,91.9,37.3,71.8,55.7C62.1,64.6,57.6,75.5,57,88.4c-0.5,11.3-1.2,22.6-2.5,33.8
			C53,133.9,49.1,145.1,43.1,155.8z M117.4,167.6c-11.8,0-23.3,0-34.8,0c0.8,10.1,7.9,16.8,17.4,16.8
			C109.6,184.4,116.6,177.7,117.4,167.6z M110.7,34.3c0-3.5,0.4-7.1-0.1-10.6c-0.8-5.3-4.7-8.1-10.3-8.1c-5.9,0-10,2.7-10.7,8.1
			c-0.5,3.6-0.1,7.2-0.1,10.6C96.5,34.3,103.5,34.3,110.7,34.3z"/>
		<path class="st630" d="M100.7,198.5c-0.6,0-1.2,0-1.7,0c-15.9-0.8-28.3-12.5-30.3-28.2c-0.5,0-0.9,0-1.4,0l-12.3,0
			c-7.5,0-14.9,0-22.4,0c-1.5,0-3.6-0.1-5.4-0.8c-3-1.1-5.2-3.7-5.6-6.6c-0.4-2.8,0.7-5.5,3-7.4c8.4-6.6,11.4-15.8,14.5-27.1
			c2.8-10.4,3.3-21.4,3.8-32.1c0.2-4.3,0.4-8.5,0.7-12.8C45,63.8,54.6,48.8,71.9,38.7c3-1.7,3.5-2.5,3.2-4.8
			c-0.4-3.4-0.1-6.9,0.1-10.2c1-13.2,11.2-22.3,24.7-22.3h0c13.5,0,23.7,9.1,24.7,22c0.3,4.2,0.3,8.5,0.2,12.1c0,1.3,0.2,1.5,1,2
			c16.6,8.5,26.7,22.4,30.2,41.4c0.9,4.9,1,9.9,1,14.8c0,1.9,0.1,3.8,0.1,5.7c0.7,16.2,3.1,29,7.6,40.5c2,5.2,4.9,11,10.4,15.2
			c2.6,2,3.8,4.9,3.3,7.8c-0.5,3.1-2.8,5.5-6.1,6.6c-1.9,0.6-3.9,0.6-5.4,0.6c-8.1,0-16.2,0-24.3,0h-11.5
			C126.8,188.6,115.9,198.5,100.7,198.5z M100,7.1C89.6,7.1,81.7,14,81,24c-0.3,3.3-0.5,6.4-0.2,9.3c0.7,5.9-2.7,8.4-6,10.3
			c-15.7,9.1-24.3,22.7-25.7,40.2c-0.3,4.2-0.5,8.4-0.7,12.6c-0.5,10.9-1,22.3-4,33.3c-3.2,11.9-6.7,22.4-16.4,30.1
			c-0.7,0.6-1.1,1.3-1,2.1c0.1,1,0.9,1.8,2,2.2c1,0.4,2.4,0.4,3.5,0.4c7.5,0,14.9,0,22.4,0l12.3,0c1,0,2,0.1,2.9,0.1l3.7,0.2
			l0.1,2.5c1,16,13.4,24.9,25.2,25.5c17.5,0.7,24.5-13.7,27.2-26.1l0.5-2.2h16c8.1,0,16.2,0,24.2,0c1.2,0,2.6,0,3.6-0.3
			c1.2-0.4,2.1-1.2,2.3-2.2c0.1-0.9-0.3-1.7-1.2-2.4c-6.6-5.1-10-12.1-12.2-17.6c-4.7-12-7.3-25.5-8-42.3c-0.1-2-0.1-3.9-0.1-5.9
			c-0.1-4.8-0.1-9.4-1-13.9c-3.1-17.2-12.3-29.8-27.2-37.4c-3.7-1.9-4.1-5-4.1-7.1c0.1-3.5,0.1-7.5-0.2-11.6
			C118.3,14,110.5,7.1,100,7.1L100,7.1z M100,187.2c-11.1,0-19.3-7.8-20.2-19.3l-0.3-3h40.9l-0.2,3C119.3,179.2,111,187.2,100,187.2
			L100,187.2z M85.9,170.4c1.7,6.9,7,11.1,14.1,11.1h0c7,0,12.4-4.4,14.1-11.1H85.9z M161,158.6H38.3l2.3-4.2
			c6.1-10.9,9.7-21.6,11-32.6c1.4-11.5,2-22.9,2.5-33.6c0.7-14.2,5.8-25.5,15.7-34.6c10.1-9.2,24.6-13.1,38.8-10.4
			c14.2,2.7,26.2,11.8,32.1,24.1c3.4,7,5,14.6,5.1,23.3c0.1,21.1,2.5,36.8,7.7,51.1c1.1,2.9,2.4,5.7,3.7,8.6c0.7,1.4,1.3,2.8,2,4.3
			L161,158.6z M47.8,153h104.5c0-0.1-0.1-0.1-0.1-0.2c-1.4-3-2.8-6-3.9-9c-5.5-14.9-7.9-31.3-8.1-53c0-7.9-1.5-14.7-4.5-20.9
			c-5.2-10.9-15.5-18.6-28.1-21c-12.6-2.4-25,0.9-33.9,9c-8.8,8-13.3,18.1-13.9,30.7c-0.5,10.2-1.1,22.2-2.6,34
			C56,132.8,52.9,142.9,47.8,153z M113.5,37.1H86.6v-2.8c0-1,0-2-0.1-3c-0.1-2.6-0.2-5.2,0.2-8c1-6.6,5.9-10.4,13.5-10.5
			c7.3,0.1,12.2,4,13.1,10.5c0.4,2.6,0.3,5.3,0.2,7.8c0,1.1-0.1,2.1-0.1,3.2V37.1z M92.1,31.5h15.8c0-0.2,0-0.4,0-0.6
			c0.1-2.4,0.2-4.7-0.1-6.8c-0.7-4.7-4.5-5.7-7.6-5.7c0,0-0.1,0-0.1,0c-4.6,0-7.2,1.9-7.8,5.7c-0.3,2.2-0.2,4.6-0.1,6.9
			C92.1,31.2,92.1,31.4,92.1,31.5z"/>
	</g>
</g>
</svg>
